ffmpeg started on 2025-06-07 at 15:44:00
Report written to "D:\Convert\FFMetrics\reports\psnr_report-6.txt"
Log level: 32
Command line:
ffmpeg -hide_banner -nostdin -i "G:\\\xc0\xed\xe8\xec\xe5\\\xce\xed\xe3\xee\xe8\xed\xe3\xe8\\!_36_\xce\xf1\xe5\xed\xfc_2024\\DreamCast\\\xd1\xee\xe1\xeb\xe0\xe7\xed 2,5-\xec\xe5\xf0\xed\xee\xe3\xee \xe8\xe7\xec\xe5\xf0\xe5\xed\xe8\xff\\[DC] 2-5 Jigen no Ririsa - 21_Telegram_HEVC.mkv" -i "G:\\\xc0\xed\xe8\xec\xe5\\\xce\xed\xe3\xee\xe8\xed\xe3\xe8\\!_36_\xce\xf1\xe5\xed\xfc_2024\\DreamCast\\\xd1\xee\xe1\xeb\xe0\xe7\xed 2,5-\xec\xe5\xf0\xed\xee\xe3\xee \xe8\xe7\xec\xe5\xf0\xe5\xed\xe8\xff\\[DC] 2-5 Jigen no Ririsa - 21_Telegram.mp4" -lavfi "[0:v]settb=AVTB,setpts=PTS-STARTPTS,format=pix_fmts=yuv420p10,fps=24/1,scale=1920:1080:flags=bicubic[main];[1:v]settb=AVTB,setpts=PTS-STARTPTS,format=pix_fmts=yuv420p,fps=24/1,scale=1920:1080:flags=bicubic[ref];[main][ref]psnr=eof_action=endall:stats_file='D\\:/Convert/FFMetrics/logs/psnr_logfile-6.txt'" -f null -
Input #0, matroska,webm, from 'G:\Аниме\Онгоинги\!_36_Осень_2024\DreamCast\Соблазн 2,5-мерного измерения\[DC] 2-5 Jigen no Ririsa - 21_Telegram_HEVC.mkv':
  Metadata:
    COMPATIBLE_BRANDS: isomiso2avc1mp41
    MAJOR_BRAND     : isom
    MINOR_VERSION   : 512
    ENCODER         : Lavf61.7.100
  Duration: 00:24:09.13, start: -0.021000, bitrate: 1032 kb/s
  Stream #0:0: Video: hevc (Main 10), yuv420p10le(tv, bt709, progressive), 1920x1080 [SAR 1:1 DAR 16:9], 24 fps, 24 tbr, 1k tbn (default)
      Metadata:
        HANDLER_NAME    : VideoHandler
        VENDOR_ID       : [0][0][0][0]
        ENCODER         : Lavc61.19.100 libx265
        BPS             : 834832
        DURATION        : 00:24:08.999666666
        NUMBER_OF_FRAMES: 34776
        NUMBER_OF_BYTES : 151208855
        _STATISTICS_WRITING_APP: mkvpropedit v66.0.0 ('Josie') 64-bit
        _STATISTICS_WRITING_DATE_UTC: 2025-06-04 13:26:41
        _STATISTICS_TAGS: BPS DURATION NUMBER_OF_FRAMES NUMBER_OF_BYTES
  Stream #0:1: Audio: aac (LC), 48000 Hz, stereo, fltp (default)
      Metadata:
        HANDLER_NAME    : SoundHandler
        VENDOR_ID       : [0][0][0][0]
        ENCODER         : Lavc61.19.100 aac
        BPS             : 193211
        DURATION        : 00:24:09.130000000
        NUMBER_OF_FRAMES: 67929
        NUMBER_OF_BYTES : 34998559
        _STATISTICS_WRITING_APP: mkvpropedit v66.0.0 ('Josie') 64-bit
        _STATISTICS_WRITING_DATE_UTC: 2025-06-04 13:26:41
        _STATISTICS_TAGS: BPS DURATION NUMBER_OF_FRAMES NUMBER_OF_BYTES
Input #1, mov,mp4,m4a,3gp,3g2,mj2, from 'G:\Аниме\Онгоинги\!_36_Осень_2024\DreamCast\Соблазн 2,5-мерного измерения\[DC] 2-5 Jigen no Ririsa - 21_Telegram.mp4':
  Metadata:
    major_brand     : isom
    minor_version   : 512
    compatible_brands: isomiso2avc1mp41
    encoder         : Lavf61.1.100
  Duration: 00:24:09.07, start: 0.000000, bitrate: 3809 kb/s
  Stream #1:0[0x1](und): Video: h264 (High) (avc1 / 0x31637661), yuv420p(tv, bt709, progressive), 1920x1080 [SAR 1:1 DAR 16:9], 3661 kb/s, 24 fps, 24 tbr, 12288 tbn (default)
      Metadata:
        handler_name    : VideoHandler
        vendor_id       : [0][0][0][0]
        encoder         : Lavc61.3.100 h264_qsv
  Stream #1:1[0x2](und): Audio: aac (HE-AACv2) (mp4a / 0x6134706D), 48000 Hz, stereo, fltp, 144 kb/s (default)
      Metadata:
        handler_name    : SoundHandler
        vendor_id       : [0][0][0][0]
Stream mapping:
  Stream #0:0 (hevc) -> settb:default
  Stream #1:0 (h264) -> settb:default
  psnr:default -> Stream #0:0 (wrapped_avframe)
  Stream #0:1 -> #0:1 (aac (native) -> pcm_s16le (native))
Output #0, null, to 'pipe:':
  Metadata:
    COMPATIBLE_BRANDS: isomiso2avc1mp41
    MAJOR_BRAND     : isom
    MINOR_VERSION   : 512
    encoder         : Lavf61.7.100
  Stream #0:0: Video: wrapped_avframe, yuv420p10le(tv, bt709, progressive), 1920x1080 [SAR 1:1 DAR 16:9], q=2-31, 200 kb/s, 24 fps, 24 tbn
      Metadata:
        encoder         : Lavc61.19.100 wrapped_avframe
  Stream #0:1: Audio: pcm_s16le, 48000 Hz, stereo, s16, 1536 kb/s (default)
      Metadata:
        HANDLER_NAME    : SoundHandler
        VENDOR_ID       : [0][0][0][0]
        _STATISTICS_TAGS: BPS DURATION NUMBER_OF_FRAMES NUMBER_OF_BYTES
        BPS             : 193211
        DURATION        : 00:24:09.130000000
        NUMBER_OF_FRAMES: 67929
        NUMBER_OF_BYTES : 34998559
        _STATISTICS_WRITING_APP: mkvpropedit v66.0.0 ('Josie') 64-bit
        _STATISTICS_WRITING_DATE_UTC: 2025-06-04 13:26:41
        encoder         : Lavc61.19.100 pcm_s16le
frame=  175 fps=0.0 q=-0.0 size=N/A time=00:00:07.29 bitrate=N/A speed=14.3x    frame=  418 fps=403 q=-0.0 size=N/A time=00:00:17.41 bitrate=N/A speed=16.8x    frame=  684 fps=442 q=-0.0 size=N/A time=00:00:28.50 bitrate=N/A speed=18.4x    frame=  943 fps=458 q=-0.0 size=N/A time=00:00:39.29 bitrate=N/A speed=19.1x    frame= 1215 fps=470 q=-0.0 size=N/A time=00:00:50.62 bitrate=N/A speed=19.6x    frame= 1479 fps=478 q=-0.0 size=N/A time=00:01:01.62 bitrate=N/A speed=19.9x    frame= 1735 fps=481 q=-0.0 size=N/A time=00:01:12.29 bitrate=N/A speed=20.1x    frame= 2003 fps=485 q=-0.0 size=N/A time=00:01:23.45 bitrate=N/A speed=20.2x    frame= 2278 fps=491 q=-0.0 size=N/A time=00:01:34.91 bitrate=N/A speed=20.5x    frame= 2537 fps=492 q=-0.0 size=N/A time=00:01:45.70 bitrate=N/A speed=20.5x    frame= 2741 fps=483 q=-0.0 size=N/A time=00:01:54.20 bitrate=N/A speed=20.1x    frame= 2972 fps=480 q=-0.0 size=N/A time=00:02:03.83 bitrate=N/A speed=  20x    frame= 3215 fps=480 q=-0.0 size=N/A time=00:02:13.95 bitrate=N/A speed=  20x    frame= 3453 fps=478 q=-0.0 size=N/A time=00:02:23.87 bitrate=N/A speed=19.9x    frame= 3674 fps=475 q=-0.0 size=N/A time=00:02:33.08 bitrate=N/A speed=19.8x    frame= 3844 fps=466 q=-0.0 size=N/A time=00:02:40.16 bitrate=N/A speed=19.4x    frame= 4018 fps=458 q=-0.0 size=N/A time=00:02:47.41 bitrate=N/A speed=19.1x    frame= 4241 fps=457 q=-0.0 size=N/A time=00:02:56.70 bitrate=N/A speed=  19x    frame= 4445 fps=454 q=-0.0 size=N/A time=00:03:05.20 bitrate=N/A speed=18.9x    frame= 4661 fps=452 q=-0.0 size=N/A time=00:03:14.20 bitrate=N/A speed=18.8x    frame= 4899 fps=452 q=-0.0 size=N/A time=00:03:24.12 bitrate=N/A speed=18.8x    frame= 5148 fps=454 q=-0.0 size=N/A time=00:03:34.50 bitrate=N/A speed=18.9x    frame= 5415 fps=456 q=-0.0 size=N/A time=00:03:45.62 bitrate=N/A speed=  19x    frame= 5652 fps=457 q=-0.0 size=N/A time=00:03:55.50 bitrate=N/A speed=  19x    frame= 5914 fps=459 q=-0.0 size=N/A time=00:04:06.45 bitrate=N/A speed=19.1x    frame= 6196 fps=462 q=-0.0 size=N/A time=00:04:18.16 bitrate=N/A speed=19.3x    frame= 6461 fps=464 q=-0.0 size=N/A time=00:04:29.20 bitrate=N/A speed=19.3x    frame= 6712 fps=465 q=-0.0 size=N/A time=00:04:39.66 bitrate=N/A speed=19.4x    frame= 6977 fps=467 q=-0.0 size=N/A time=00:04:50.70 bitrate=N/A speed=19.4x    frame= 7222 fps=467 q=-0.0 size=N/A time=00:05:00.91 bitrate=N/A speed=19.4x    frame= 7476 fps=467 q=-0.0 size=N/A time=00:05:11.50 bitrate=N/A speed=19.5x    frame= 7724 fps=468 q=-0.0 size=N/A time=00:05:21.83 bitrate=N/A speed=19.5x    frame= 7976 fps=468 q=-0.0 size=N/A time=00:05:32.33 bitrate=N/A speed=19.5x    frame= 8230 fps=469 q=-0.0 size=N/A time=00:05:42.91 bitrate=N/A speed=19.5x    frame= 8473 fps=469 q=-0.0 size=N/A time=00:05:53.04 bitrate=N/A speed=19.5x    frame= 8722 fps=470 q=-0.0 size=N/A time=00:06:03.41 bitrate=N/A speed=19.6x    frame= 8968 fps=470 q=-0.0 size=N/A time=00:06:13.66 bitrate=N/A speed=19.6x    frame= 9216 fps=470 q=-0.0 size=N/A time=00:06:24.00 bitrate=N/A speed=19.6x    frame= 9410 fps=468 q=-0.0 size=N/A time=00:06:32.08 bitrate=N/A speed=19.5x    frame= 9655 fps=468 q=-0.0 size=N/A time=00:06:42.29 bitrate=N/A speed=19.5x    frame= 9941 fps=470 q=-0.0 size=N/A time=00:06:54.20 bitrate=N/A speed=19.6x    frame=10211 fps=471 q=-0.0 size=N/A time=00:07:05.45 bitrate=N/A speed=19.6x    frame=10496 fps=473 q=-0.0 size=N/A time=00:07:17.33 bitrate=N/A speed=19.7x    frame=10764 fps=474 q=-0.0 size=N/A time=00:07:28.50 bitrate=N/A speed=19.8x    frame=11026 fps=475 q=-0.0 size=N/A time=00:07:39.41 bitrate=N/A speed=19.8x    frame=11271 fps=475 q=-0.0 size=N/A time=00:07:49.62 bitrate=N/A speed=19.8x    frame=11508 fps=475 q=-0.0 size=N/A time=00:07:59.50 bitrate=N/A speed=19.8x    frame=11722 fps=473 q=-0.0 size=N/A time=00:08:08.41 bitrate=N/A speed=19.7x    frame=11967 fps=473 q=-0.0 size=N/A time=00:08:18.62 bitrate=N/A speed=19.7x    frame=12202 fps=473 q=-0.0 size=N/A time=00:08:28.41 bitrate=N/A speed=19.7x    frame=12449 fps=473 q=-0.0 size=N/A time=00:08:38.70 bitrate=N/A speed=19.7x    frame=12689 fps=473 q=-0.0 size=N/A time=00:08:48.70 bitrate=N/A speed=19.7x    frame=12939 fps=473 q=-0.0 size=N/A time=00:08:59.12 bitrate=N/A speed=19.7x    frame=13163 fps=473 q=-0.0 size=N/A time=00:09:08.45 bitrate=N/A speed=19.7x    frame=13427 fps=473 q=-0.0 size=N/A time=00:09:19.45 bitrate=N/A speed=19.7x    frame=13671 fps=473 q=-0.0 size=N/A time=00:09:29.62 bitrate=N/A speed=19.7x    frame=13934 fps=474 q=-0.0 size=N/A time=00:09:40.58 bitrate=N/A speed=19.7x    frame=14179 fps=474 q=-0.0 size=N/A time=00:09:50.79 bitrate=N/A speed=19.7x    frame=14435 fps=474 q=-0.0 size=N/A time=00:10:01.45 bitrate=N/A speed=19.8x    frame=14695 fps=475 q=-0.0 size=N/A time=00:10:12.29 bitrate=N/A speed=19.8x    frame=14944 fps=475 q=-0.0 size=N/A time=00:10:22.66 bitrate=N/A speed=19.8x    frame=15188 fps=475 q=-0.0 size=N/A time=00:10:32.83 bitrate=N/A speed=19.8x    frame=15445 fps=475 q=-0.0 size=N/A time=00:10:43.54 bitrate=N/A speed=19.8x    frame=15709 fps=476 q=-0.0 size=N/A time=00:10:54.54 bitrate=N/A speed=19.8x    frame=15948 fps=476 q=-0.0 size=N/A time=00:11:04.50 bitrate=N/A speed=19.8x    frame=16180 fps=475 q=-0.0 size=N/A time=00:11:14.16 bitrate=N/A speed=19.8x    frame=16420 fps=475 q=-0.0 size=N/A time=00:11:24.16 bitrate=N/A speed=19.8x    frame=16670 fps=475 q=-0.0 size=N/A time=00:11:34.58 bitrate=N/A speed=19.8x    frame=16889 fps=474 q=-0.0 size=N/A time=00:11:43.70 bitrate=N/A speed=19.8x    frame=17131 fps=474 q=-0.0 size=N/A time=00:11:53.79 bitrate=N/A speed=19.8x    frame=17372 fps=474 q=-0.0 size=N/A time=00:12:03.83 bitrate=N/A speed=19.8x    frame=17624 fps=474 q=-0.0 size=N/A time=00:12:14.33 bitrate=N/A speed=19.8x    frame=17888 fps=475 q=-0.0 size=N/A time=00:12:25.33 bitrate=N/A speed=19.8x    frame=18127 fps=475 q=-0.0 size=N/A time=00:12:35.29 bitrate=N/A speed=19.8x    frame=18391 fps=475 q=-0.0 size=N/A time=00:12:46.29 bitrate=N/A speed=19.8x    frame=18649 fps=476 q=-0.0 size=N/A time=00:12:57.04 bitrate=N/A speed=19.8x    frame=18919 fps=476 q=-0.0 size=N/A time=00:13:08.29 bitrate=N/A speed=19.8x    frame=19190 fps=477 q=-0.0 size=N/A time=00:13:19.58 bitrate=N/A speed=19.9x    frame=19447 fps=477 q=-0.0 size=N/A time=00:13:30.29 bitrate=N/A speed=19.9x    frame=19715 fps=477 q=-0.0 size=N/A time=00:13:41.45 bitrate=N/A speed=19.9x    frame=19981 fps=478 q=-0.0 size=N/A time=00:13:52.54 bitrate=N/A speed=19.9x    frame=20242 fps=478 q=-0.0 size=N/A time=00:14:03.41 bitrate=N/A speed=19.9x    frame=20496 fps=478 q=-0.0 size=N/A time=00:14:14.00 bitrate=N/A speed=19.9x    frame=20723 fps=478 q=-0.0 size=N/A time=00:14:23.45 bitrate=N/A speed=19.9x    frame=20978 fps=478 q=-0.0 size=N/A time=00:14:34.12 bitrate=N/A speed=19.9x    frame=21261 fps=479 q=-0.0 size=N/A time=00:14:45.87 bitrate=N/A speed=  20x    frame=21539 fps=480 q=-0.0 size=N/A time=00:14:57.45 bitrate=N/A speed=  20x    frame=21813 fps=480 q=-0.0 size=N/A time=00:15:08.87 bitrate=N/A speed=  20x    frame=22087 fps=481 q=-0.0 size=N/A time=00:15:20.29 bitrate=N/A speed=  20x    frame=22361 fps=482 q=-0.0 size=N/A time=00:15:31.70 bitrate=N/A speed=20.1x    frame=22633 fps=482 q=-0.0 size=N/A time=00:15:43.04 bitrate=N/A speed=20.1x    frame=22857 fps=481 q=-0.0 size=N/A time=00:15:52.37 bitrate=N/A speed=20.1x    frame=23105 fps=481 q=-0.0 size=N/A time=00:16:02.70 bitrate=N/A speed=20.1x    frame=23348 fps=481 q=-0.0 size=N/A time=00:16:12.83 bitrate=N/A speed=20.1x    frame=23568 fps=481 q=-0.0 size=N/A time=00:16:22.00 bitrate=N/A speed=  20x    frame=23818 fps=481 q=-0.0 size=N/A time=00:16:32.41 bitrate=N/A speed=  20x    frame=24074 fps=481 q=-0.0 size=N/A time=00:16:43.08 bitrate=N/A speed=  20x    frame=24305 fps=481 q=-0.0 size=N/A time=00:16:52.70 bitrate=N/A speed=  20x    frame=24563 fps=481 q=-0.0 size=N/A time=00:17:03.45 bitrate=N/A speed=  20x    frame=24821 fps=481 q=-0.0 size=N/A time=00:17:14.20 bitrate=N/A speed=  20x    frame=25080 fps=481 q=-0.0 size=N/A time=00:17:25.00 bitrate=N/A speed=  20x    frame=25332 fps=481 q=-0.0 size=N/A time=00:17:35.50 bitrate=N/A speed=  20x    frame=25584 fps=481 q=-0.0 size=N/A time=00:17:46.00 bitrate=N/A speed=  20x    frame=25842 fps=481 q=-0.0 size=N/A time=00:17:56.75 bitrate=N/A speed=20.1x    frame=26116 fps=482 q=-0.0 size=N/A time=00:18:08.20 bitrate=N/A speed=20.1x    frame=26380 fps=482 q=-0.0 size=N/A time=00:18:19.16 bitrate=N/A speed=20.1x    frame=26607 fps=482 q=-0.0 size=N/A time=00:18:28.62 bitrate=N/A speed=20.1x    frame=26849 fps=482 q=-0.0 size=N/A time=00:18:38.70 bitrate=N/A speed=20.1x    frame=27111 fps=482 q=-0.0 size=N/A time=00:18:49.62 bitrate=N/A speed=20.1x    frame=27370 fps=482 q=-0.0 size=N/A time=00:19:00.41 bitrate=N/A speed=20.1x    frame=27602 fps=482 q=-0.0 size=N/A time=00:19:10.08 bitrate=N/A speed=20.1x    frame=27871 fps=482 q=-0.0 size=N/A time=00:19:21.29 bitrate=N/A speed=20.1x    frame=28109 fps=482 q=-0.0 size=N/A time=00:19:31.20 bitrate=N/A speed=20.1x    frame=28315 fps=481 q=-0.0 size=N/A time=00:19:39.79 bitrate=N/A speed=  20x    frame=28587 fps=482 q=-0.0 size=N/A time=00:19:51.12 bitrate=N/A speed=20.1x    frame=28848 fps=482 q=-0.0 size=N/A time=00:20:02.00 bitrate=N/A speed=20.1x    frame=29110 fps=482 q=-0.0 size=N/A time=00:20:12.91 bitrate=N/A speed=20.1x    frame=29394 fps=483 q=-0.0 size=N/A time=00:20:24.75 bitrate=N/A speed=20.1x    frame=29632 fps=482 q=-0.0 size=N/A time=00:20:34.66 bitrate=N/A speed=20.1x    frame=29871 fps=482 q=-0.0 size=N/A time=00:20:44.62 bitrate=N/A speed=20.1x    frame=30106 fps=482 q=-0.0 size=N/A time=00:20:54.41 bitrate=N/A speed=20.1x    frame=30352 fps=482 q=-0.0 size=N/A time=00:21:04.66 bitrate=N/A speed=20.1x    frame=30602 fps=482 q=-0.0 size=N/A time=00:21:15.08 bitrate=N/A speed=20.1x    frame=30847 fps=482 q=-0.0 size=N/A time=00:21:25.29 bitrate=N/A speed=20.1x    frame=31100 fps=482 q=-0.0 size=N/A time=00:21:35.83 bitrate=N/A speed=20.1x    frame=31366 fps=482 q=-0.0 size=N/A time=00:21:46.91 bitrate=N/A speed=20.1x    frame=31614 fps=482 q=-0.0 size=N/A time=00:21:57.25 bitrate=N/A speed=20.1x    frame=31870 fps=482 q=-0.0 size=N/A time=00:22:07.91 bitrate=N/A speed=20.1x    frame=32136 fps=483 q=-0.0 size=N/A time=00:22:19.00 bitrate=N/A speed=20.1x    frame=32388 fps=483 q=-0.0 size=N/A time=00:22:29.50 bitrate=N/A speed=20.1x    frame=32614 fps=482 q=-0.0 size=N/A time=00:22:38.91 bitrate=N/A speed=20.1x    frame=32851 fps=482 q=-0.0 size=N/A time=00:22:48.79 bitrate=N/A speed=20.1x    frame=33094 fps=482 q=-0.0 size=N/A time=00:22:58.91 bitrate=N/A speed=20.1x    frame=33338 fps=482 q=-0.0 size=N/A time=00:23:09.08 bitrate=N/A speed=20.1x    frame=33591 fps=482 q=-0.0 size=N/A time=00:23:19.62 bitrate=N/A speed=20.1x    frame=33847 fps=482 q=-0.0 size=N/A time=00:23:30.29 bitrate=N/A speed=20.1x    frame=34106 fps=482 q=-0.0 size=N/A time=00:23:41.08 bitrate=N/A speed=20.1x    frame=34343 fps=482 q=-0.0 size=N/A time=00:23:50.95 bitrate=N/A speed=20.1x    frame=34604 fps=482 q=-0.0 size=N/A time=00:24:01.83 bitrate=N/A speed=20.1x    [Parsed_psnr_10 @ 0000017c79241040] PSNR y:47.713184 u:50.601598 v:50.361097 average:48.455129 min:41.896162 max:inf
[out#0/null @ 0000017c6c534a40] video:14943KiB audio:271716KiB subtitle:0KiB other streams:0KiB global headers:0KiB muxing overhead: unknown
frame=34776 fps=483 q=-0.0 Lsize=N/A time=00:24:09.00 bitrate=N/A speed=20.1x    
